<mxfile host="app.diagrams.net" modified="2024-02-01T10:41:46.833Z" agent="Mozilla/5.0 (Windows NT 10.0; Win64; x64) AppleWebKit/537.36 (KHTML, like Gecko) Chrome/121.0.0.0 Safari/537.36" etag="KXnb0FDlCz65qEaVeqGI" version="23.0.2" type="github">
  <diagram id="prtHgNgQTEPvFCAcTncT" name="Page-1">
    <mxGraphModel dx="2787" dy="950" grid="1" gridSize="10" guides="1" tooltips="1" connect="1" arrows="1" fold="1" page="1" pageScale="1" pageWidth="827" pageHeight="1169" math="0" shadow="0">
      <root>
        <mxCell id="0" />
        <mxCell id="1" parent="0" />
        <mxCell id="wllnhXUUlLf9FEZYVpir-10" style="edgeStyle=orthogonalEdgeStyle;rounded=0;orthogonalLoop=1;jettySize=auto;html=1;exitX=0.5;exitY=1;exitDx=0;exitDy=0;entryX=0.5;entryY=0;entryDx=0;entryDy=0;" edge="1" parent="1" source="dNxyNK7c78bLwvsdeMH5-11" target="wllnhXUUlLf9FEZYVpir-9">
          <mxGeometry relative="1" as="geometry" />
        </mxCell>
        <mxCell id="wllnhXUUlLf9FEZYVpir-21" style="edgeStyle=orthogonalEdgeStyle;rounded=0;orthogonalLoop=1;jettySize=auto;html=1;exitX=1;exitY=0.5;exitDx=0;exitDy=0;" edge="1" parent="1" source="dNxyNK7c78bLwvsdeMH5-11">
          <mxGeometry relative="1" as="geometry">
            <mxPoint x="450" y="260" as="targetPoint" />
          </mxGeometry>
        </mxCell>
        <mxCell id="dNxyNK7c78bLwvsdeMH5-11" value="1. site web" style="swimlane;html=1;startSize=20;horizontal=1;containerType=tree;glass=0;" parent="1" vertex="1">
          <mxGeometry x="-10" y="55" width="330" height="230" as="geometry" />
        </mxCell>
        <mxCell id="wllnhXUUlLf9FEZYVpir-4" style="edgeStyle=orthogonalEdgeStyle;rounded=0;orthogonalLoop=1;jettySize=auto;html=1;exitX=0.5;exitY=1;exitDx=0;exitDy=0;entryX=0.5;entryY=0;entryDx=0;entryDy=0;" edge="1" parent="dNxyNK7c78bLwvsdeMH5-11" source="wllnhXUUlLf9FEZYVpir-1" target="wllnhXUUlLf9FEZYVpir-2">
          <mxGeometry relative="1" as="geometry" />
        </mxCell>
        <mxCell id="wllnhXUUlLf9FEZYVpir-5" style="edgeStyle=orthogonalEdgeStyle;rounded=0;orthogonalLoop=1;jettySize=auto;html=1;exitX=0.5;exitY=1;exitDx=0;exitDy=0;entryX=0.5;entryY=0;entryDx=0;entryDy=0;" edge="1" parent="dNxyNK7c78bLwvsdeMH5-11" source="wllnhXUUlLf9FEZYVpir-1" target="wllnhXUUlLf9FEZYVpir-3">
          <mxGeometry relative="1" as="geometry" />
        </mxCell>
        <mxCell id="wllnhXUUlLf9FEZYVpir-1" value="main page&lt;br&gt;&lt;i&gt;&lt;font style=&quot;font-size: 10px;&quot;&gt;acces aux app&lt;/font&gt;&lt;/i&gt;" style="rounded=0;whiteSpace=wrap;html=1;" vertex="1" parent="dNxyNK7c78bLwvsdeMH5-11">
          <mxGeometry x="105" y="50" width="120" height="60" as="geometry" />
        </mxCell>
        <mxCell id="wllnhXUUlLf9FEZYVpir-2" value="app 1&lt;br&gt;&lt;i&gt;&lt;font style=&quot;font-size: 10px;&quot;&gt;langage 1 (go/php/js?)&lt;/font&gt;&lt;/i&gt;" style="rounded=0;whiteSpace=wrap;html=1;" vertex="1" parent="dNxyNK7c78bLwvsdeMH5-11">
          <mxGeometry x="20" y="150" width="120" height="60" as="geometry" />
        </mxCell>
        <mxCell id="wllnhXUUlLf9FEZYVpir-3" value="app 2&lt;br&gt;&lt;i&gt;&lt;font style=&quot;font-size: 10px;&quot;&gt;langage 2 (go/php/js?)&lt;/font&gt;&lt;/i&gt;" style="rounded=0;whiteSpace=wrap;html=1;" vertex="1" parent="dNxyNK7c78bLwvsdeMH5-11">
          <mxGeometry x="190" y="150" width="120" height="60" as="geometry" />
        </mxCell>
        <mxCell id="wllnhXUUlLf9FEZYVpir-17" style="edgeStyle=orthogonalEdgeStyle;rounded=0;orthogonalLoop=1;jettySize=auto;html=1;exitX=0.5;exitY=1;exitDx=0;exitDy=0;entryX=0.5;entryY=0;entryDx=0;entryDy=0;" edge="1" parent="1" source="wllnhXUUlLf9FEZYVpir-9" target="wllnhXUUlLf9FEZYVpir-14">
          <mxGeometry relative="1" as="geometry" />
        </mxCell>
        <mxCell id="wllnhXUUlLf9FEZYVpir-22" style="edgeStyle=orthogonalEdgeStyle;rounded=0;orthogonalLoop=1;jettySize=auto;html=1;exitX=1;exitY=0.5;exitDx=0;exitDy=0;entryX=0;entryY=0.5;entryDx=0;entryDy=0;" edge="1" parent="1" source="wllnhXUUlLf9FEZYVpir-9" target="wllnhXUUlLf9FEZYVpir-19">
          <mxGeometry relative="1" as="geometry" />
        </mxCell>
        <mxCell id="wllnhXUUlLf9FEZYVpir-9" value="2. certificats/dns + heberger sur vm" style="swimlane;whiteSpace=wrap;html=1;" vertex="1" parent="1">
          <mxGeometry x="-40" y="360" width="390" height="220" as="geometry" />
        </mxCell>
        <mxCell id="wllnhXUUlLf9FEZYVpir-11" value="renseiger sur certificat et appliquer&amp;nbsp;" style="rounded=0;whiteSpace=wrap;html=1;" vertex="1" parent="wllnhXUUlLf9FEZYVpir-9">
          <mxGeometry x="50" y="40" width="120" height="60" as="geometry" />
        </mxCell>
        <mxCell id="wllnhXUUlLf9FEZYVpir-12" value="gerer les sous domaines" style="rounded=0;whiteSpace=wrap;html=1;" vertex="1" parent="wllnhXUUlLf9FEZYVpir-9">
          <mxGeometry x="230" y="50" width="120" height="60" as="geometry" />
        </mxCell>
        <mxCell id="wllnhXUUlLf9FEZYVpir-13" value="utiliser des vm (vmware,...)&lt;br&gt;heberger de facon semi-permanente/ utiliser une machine physique disponible" style="rounded=0;whiteSpace=wrap;html=1;" vertex="1" parent="wllnhXUUlLf9FEZYVpir-9">
          <mxGeometry x="135" y="140" width="165" height="60" as="geometry" />
        </mxCell>
        <mxCell id="wllnhXUUlLf9FEZYVpir-23" style="edgeStyle=orthogonalEdgeStyle;rounded=0;orthogonalLoop=1;jettySize=auto;html=1;exitX=1;exitY=0.5;exitDx=0;exitDy=0;entryX=0;entryY=0.75;entryDx=0;entryDy=0;" edge="1" parent="1" source="wllnhXUUlLf9FEZYVpir-14" target="wllnhXUUlLf9FEZYVpir-19">
          <mxGeometry relative="1" as="geometry" />
        </mxCell>
        <mxCell id="wllnhXUUlLf9FEZYVpir-14" value="3. reserver proxy/loadbalancing" style="swimlane;whiteSpace=wrap;html=1;" vertex="1" parent="1">
          <mxGeometry x="-50" y="670" width="410" height="240" as="geometry" />
        </mxCell>
        <mxCell id="wllnhXUUlLf9FEZYVpir-16" value="gerer les avaries avec des redirections de serveur et partage de la charge" style="rounded=0;whiteSpace=wrap;html=1;" vertex="1" parent="wllnhXUUlLf9FEZYVpir-14">
          <mxGeometry x="220" y="120" width="160" height="60" as="geometry" />
        </mxCell>
        <mxCell id="wllnhXUUlLf9FEZYVpir-18" value="mettre en place un/des proxy" style="rounded=0;whiteSpace=wrap;html=1;" vertex="1" parent="wllnhXUUlLf9FEZYVpir-14">
          <mxGeometry x="60" y="60" width="120" height="60" as="geometry" />
        </mxCell>
        <mxCell id="wllnhXUUlLf9FEZYVpir-19" value="documenter" style="swimlane;whiteSpace=wrap;html=1;" vertex="1" parent="1">
          <mxGeometry x="450" y="60" width="200" height="810" as="geometry" />
        </mxCell>
        <mxCell id="wllnhXUUlLf9FEZYVpir-24" value="outils" style="rounded=0;whiteSpace=wrap;html=1;" vertex="1" parent="wllnhXUUlLf9FEZYVpir-19">
          <mxGeometry x="40" y="70" width="120" height="60" as="geometry" />
        </mxCell>
        <mxCell id="wllnhXUUlLf9FEZYVpir-25" value="fonctionnement / fonctionnalitÃ©es" style="rounded=0;whiteSpace=wrap;html=1;" vertex="1" parent="wllnhXUUlLf9FEZYVpir-19">
          <mxGeometry x="25" y="180" width="150" height="60" as="geometry" />
        </mxCell>
        <mxCell id="wllnhXUUlLf9FEZYVpir-26" value="gestion" style="rounded=0;whiteSpace=wrap;html=1;" vertex="1" parent="wllnhXUUlLf9FEZYVpir-19">
          <mxGeometry x="40" y="270" width="120" height="60" as="geometry" />
        </mxCell>
        <mxCell id="wllnhXUUlLf9FEZYVpir-27" value="organisation" style="rounded=0;whiteSpace=wrap;html=1;" vertex="1" parent="wllnhXUUlLf9FEZYVpir-19">
          <mxGeometry x="40" y="360" width="120" height="60" as="geometry" />
        </mxCell>
      </root>
    </mxGraphModel>
  </diagram>
</mxfile>
